<svg xmlns="http://www.w3.org/2000/svg" height="1536" preserveAspectRatio="none" style="display: block;" version="1.1" viewBox="0 0 2688 1536" width="2688">
<defs>
	<linearGradient gradientUnits="userSpaceOnUse" id="Gradient1" x1="1170.96" x2="1354.57" y1="1159.13" y2="991.691">
		<stop class="stop0" offset="0" stop-color="rgb(86,100,237)" stop-opacity="1"></stop>
		<stop class="stop1" offset="1" stop-color="rgb(119,123,242)" stop-opacity="1"></stop>
	</linearGradient>
</defs>
<path d="M 0 0 L 2688 0 L 2688 1536 L 0 1536 L 0 0 z" fill="rgb(12,2,16)" transform="translate(0,0)"></path>
<path d="M 894.261 532.772 C 894.186 530.579 894.122 528.386 894.07 526.193 C 891.201 406.063 935.618 284.87 1019.02 197.795 C 1101.19 112.259 1213.66 62.4057 1332.22 58.9673 C 1451.74 55.9013 1567.56 100.578 1654.06 183.115 C 1732.85 258.864 1781.85 360.356 1792.17 469.16 C 1794.51 492.16 1793.83 510.028 1794.25 532.742 C 1805.65 539.183 1817.03 545.349 1828.14 552.306 C 1932.22 616.599 2006.37 719.743 2034.15 838.884 C 2062.6 959.448 2041.48 1086.39 1975.53 1191.24 C 1911.05 1292.94 1809.23 1365.26 1691.97 1392.66 C 1594.07 1414.59 1491.67 1403.59 1400.66 1361.37 C 1380.09 1351.7 1362.4 1340.88 1343.31 1328.84 L 1335.05 1334.1 C 1233.29 1398.19 1110.17 1419.03 992.982 1392 C 874.071 1364.91 772.813 1288.46 708.239 1185.78 C 704.395 1179.39 700.646 1172.94 696.992 1166.43 C 639.095 1061.08 624.763 937.233 657.068 821.437 C 684.094 724.302 742.288 638.739 822.697 577.911 C 847.497 559.246 867.565 547.646 894.261 532.772 z" fill="rgb(13,10,46)" transform="translate(0,0)"></path>
<path d="M 1345.64 558.18 C 1359.51 543.455 1430.21 512.732 1451.33 505.683 C 1562.5 467.731 1684.31 476.415 1788.98 529.756 L 1794.25 532.742 L 1793.96 538.227 C 1814.85 550.402 1832.94 560.827 1852.57 575.143 C 1937.78 636.367 1999.01 725.367 2025.72 826.842 C 2057.57 944.806 2040.51 1070.63 1978.4 1175.85 C 1917.68 1278.88 1818.82 1353.84 1703.23 1384.49 C 1589.76 1413.61 1469.39 1396.93 1368.12 1338.06 C 1364.16 1335.75 1350.57 1327.74 1347.35 1325.02 L 1347 1324.32 C 1345.13 1323.39 1344.74 1323.08 1343.07 1321.8 C 1339.93 1322.2 1315.31 1303.13 1311.77 1300.21 C 1274.43 1270.45 1248.09 1242.16 1220.48 1203.4 C 1261.24 1173.71 1302.21 1144.32 1343.38 1115.22 C 1345.3 1114.54 1344.63 1114.76 1346.21 1113.12 C 1345.06 1108.66 1345.54 1073.7 1345.64 1065.55 C 1346 1037.44 1344.62 1007.46 1345.63 979.561 C 1347.77 977.168 1349.21 977.653 1353.02 977.011 C 1366.73 977.624 1391.07 975.027 1404.95 973.311 C 1460.22 966.482 1502.36 950.825 1551.11 925.181 L 1556.1 922.748 L 1555.99 917.228 C 1549.85 845.186 1528.54 782.117 1493.53 719.455 L 1491.73 716.507 L 1491.67 715.665 C 1483.91 705.782 1472.63 686.844 1464.2 674.999 C 1437.38 637.314 1388.13 584.928 1348.26 561.509 L 1345.52 558.959 L 1345.64 558.18 z" fill="rgb(13,10,46)" transform="translate(0,0)"></path>
<path d="M 1345.64 558.18 C 1359.51 543.455 1430.21 512.732 1451.33 505.683 C 1562.5 467.731 1684.31 476.415 1788.98 529.756 L 1794.25 532.742 L 1793.96 538.227 C 1792.67 548.587 1792.03 558.984 1790.85 569.355 C 1777.05 690.28 1716.95 804.576 1620.74 880.027 C 1600.06 896.245 1578.7 909.473 1556.1 922.748 L 1555.99 917.228 C 1549.85 845.186 1528.54 782.117 1493.53 719.455 L 1491.73 716.507 L 1491.67 715.665 C 1483.91 705.782 1472.63 686.844 1464.2 674.999 C 1437.38 637.314 1388.13 584.928 1348.26 561.509 L 1345.52 558.959 L 1345.64 558.18 z" fill="rgb(54,67,211)" transform="translate(0,0)"></path>
<path d="M 1588.41 486.758 C 1594.42 485.252 1602.62 484.996 1608.54 486.88 C 1608.88 520.291 1609.01 553.703 1608.92 587.115 C 1608.93 605.314 1609.6 629.569 1608.31 647.207 L 1604.51 647.241 C 1578.62 663.697 1551.76 678.892 1525.53 694.755 C 1519.48 698.412 1495.58 712.107 1491.67 715.665 C 1483.91 705.782 1472.63 686.844 1464.2 674.999 C 1437.38 637.314 1388.13 584.928 1348.26 561.509 C 1425.53 512.35 1496.34 489.529 1588.41 486.758 z" fill="rgb(17,33,172)" transform="translate(0,0)"></path>
<path d="M 1588.41 486.758 C 1594.42 485.252 1602.62 484.996 1608.54 486.88 C 1608.88 520.291 1609.01 553.703 1608.92 587.115 C 1608.93 605.314 1609.6 629.569 1608.31 647.207 L 1604.51 647.241 C 1604.21 593.781 1604.26 540.32 1604.68 486.861 L 1588.41 486.758 z" fill="rgb(106,115,230)" transform="translate(0,0)"></path>
<path d="M 1608.54 486.88 C 1671 492.479 1733.7 504.071 1789.22 535.316 C 1783.4 608.52 1773.44 651.619 1742.89 719.441 C 1702.22 696.546 1660.19 675.679 1619.21 653.331 C 1616.02 651.591 1611.18 649.248 1608.31 647.207 C 1609.6 629.569 1608.93 605.314 1608.92 587.115 C 1609.01 553.703 1608.88 520.291 1608.54 486.88 z" fill="rgb(17,33,172)" transform="translate(0,0)"></path>
<path d="M 1345.64 558.18 C 1359.51 543.455 1430.21 512.732 1451.33 505.683 C 1562.5 467.731 1684.31 476.415 1788.98 529.756 L 1794.25 532.742 L 1793.96 538.227 C 1792.67 548.587 1792.03 558.984 1790.85 569.355 C 1777.05 690.28 1716.95 804.576 1620.74 880.027 C 1600.06 896.245 1578.7 909.473 1556.1 922.748 L 1555.99 917.228 C 1635.41 875.167 1700.98 803.218 1741.16 723.34 C 1698.53 700.234 1647.48 675.27 1606.37 651.137 L 1493.53 719.455 L 1491.73 716.507 L 1491.67 715.665 C 1495.58 712.107 1519.48 698.412 1525.53 694.755 C 1551.76 678.892 1578.62 663.697 1604.51 647.241 L 1608.31 647.207 C 1611.18 649.248 1616.02 651.591 1619.21 653.331 C 1660.19 675.679 1702.22 696.546 1742.89 719.441 C 1773.44 651.619 1783.4 608.52 1789.22 535.316 C 1733.7 504.071 1671 492.479 1608.54 486.88 C 1602.62 484.996 1594.42 485.252 1588.41 486.758 C 1496.34 489.529 1425.53 512.35 1348.26 561.509 L 1345.52 558.959 L 1345.64 558.18 z" fill="rgb(106,115,230)" transform="translate(0,0)"></path>
<path d="M 1551.11 925.181 C 1552.81 931.047 1552.2 949.234 1552.06 956.214 C 1550.18 1024.02 1532.14 1090.39 1499.44 1149.81 C 1489.82 1167.37 1479.03 1183.1 1467.68 1199.49 C 1455.15 1190.63 1349.77 1113.43 1346.21 1113.12 C 1345.06 1108.66 1345.54 1073.7 1345.64 1065.55 C 1346 1037.44 1344.62 1007.46 1345.63 979.561 C 1347.77 977.168 1349.21 977.653 1353.02 977.011 C 1366.73 977.624 1391.07 975.027 1404.95 973.311 C 1460.22 966.482 1502.36 950.825 1551.11 925.181 z" fill="rgb(54,67,211)" transform="translate(0,0)"></path>
<path d="M 1343.38 1115.22 C 1381.81 1144.4 1427.76 1173.45 1464.7 1202.47 C 1435.83 1245.18 1386.69 1294.23 1343.07 1321.8 C 1339.93 1322.2 1315.31 1303.13 1311.77 1300.21 C 1274.43 1270.45 1248.09 1242.16 1220.48 1203.4 C 1261.24 1173.71 1302.21 1144.32 1343.38 1115.22 z" fill="rgb(54,67,211)" transform="translate(0,0)"></path>
<path d="M 1556.1 922.748 C 1564.13 1040.63 1516.32 1156.41 1438.68 1243.31 C 1418.1 1266.35 1374.56 1310.48 1347 1324.32 C 1345.13 1323.39 1344.74 1323.08 1343.07 1321.8 C 1386.69 1294.23 1435.83 1245.18 1464.7 1202.47 C 1427.76 1173.45 1381.81 1144.4 1343.38 1115.22 C 1345.3 1114.54 1344.63 1114.76 1346.21 1113.12 C 1349.77 1113.43 1455.15 1190.63 1467.68 1199.49 C 1479.03 1183.1 1489.82 1167.37 1499.44 1149.81 C 1532.14 1090.39 1550.18 1024.02 1552.06 956.214 C 1552.2 949.234 1552.81 931.047 1551.11 925.181 L 1556.1 922.748 z" fill="rgb(106,115,230)" transform="translate(0,0)"></path>
<path d="M 899.296 530.6 C 898.993 523.216 898.898 515.825 899.011 508.436 C 900.597 389.226 948.775 275.371 1033.24 191.231 C 1117.35 109.078 1230.44 63.3553 1348.01 63.9603 C 1465.79 65.2875 1578.26 113.16 1660.86 197.125 C 1750.23 288.522 1790.39 403.209 1788.98 529.756 C 1684.31 476.415 1562.5 467.731 1451.33 505.683 C 1430.21 512.732 1359.51 543.455 1345.64 558.18 C 1342.38 557.378 1328 547.437 1324.15 545.157 C 1289.75 524.798 1251.4 508.605 1212.78 498.702 C 1127.55 475.976 1037.48 479.065 954.004 507.577 C 938.801 512.723 913.038 522.457 899.296 530.6 z" fill="rgb(12,2,16)" transform="translate(0,0)"></path>
<path d="M 1340.48 560.958 C 1342.09 559.744 1343.57 559.508 1345.52 558.959 L 1348.26 561.509 C 1388.13 584.928 1437.38 637.314 1464.2 674.999 C 1472.63 686.844 1483.91 705.782 1491.67 715.665 L 1491.73 716.507 L 1493.53 719.455 C 1528.54 782.117 1549.85 845.186 1555.99 917.228 L 1556.1 922.748 L 1551.11 925.181 C 1502.36 950.825 1460.22 966.482 1404.95 973.311 C 1391.07 975.027 1366.73 977.624 1353.02 977.011 C 1349.91 976.826 1344.88 977.291 1341.48 977.397 L 1340.72 977.316 C 1265.31 975.861 1203.4 959.838 1136.93 925.307 L 1134.26 924.481 L 1132.31 920.868 L 1132.8 916.965 C 1140.55 840.04 1160.16 787.22 1196.36 720.535 L 1197.31 719.682 L 1198.91 716.975 L 1199.01 716.322 C 1238.84 650.974 1279.26 606.526 1340.48 560.958 z" fill="rgb(173,182,248)" transform="translate(0,0)"></path>
<path d="M 1340.48 560.958 C 1342.09 559.744 1343.57 559.508 1345.52 558.959 L 1348.26 561.509 C 1388.13 584.928 1437.38 637.314 1464.2 674.999 C 1472.63 686.844 1483.91 705.782 1491.67 715.665 L 1491.73 716.507 L 1487.05 717.801 C 1474.21 726.429 1458.69 735.617 1445.15 743.251 C 1411.12 762.437 1377.39 785.243 1343.11 803.723 L 1250.74 748.375 C 1239.57 741.699 1212.47 726.311 1203.03 719.034 L 1198.91 716.975 L 1199.01 716.322 C 1238.84 650.974 1279.26 606.526 1340.48 560.958 z" fill="rgb(106,115,230)" transform="translate(0,0)"></path>
<path d="M 1340.48 560.958 C 1342.09 559.744 1343.57 559.508 1345.52 558.959 L 1348.26 561.509 C 1388.13 584.928 1437.38 637.314 1464.2 674.999 C 1472.63 686.844 1483.91 705.782 1491.67 715.665 L 1491.73 716.507 L 1487.05 717.801 C 1461.68 671.701 1419.18 622.931 1378.71 589.593 C 1367.53 580.387 1356.25 572.496 1344.74 563.847 C 1295.95 598.405 1253.83 641.529 1220.44 691.124 C 1216.84 696.444 1205.57 713.39 1203.03 719.034 L 1198.91 716.975 L 1199.01 716.322 C 1238.84 650.974 1279.26 606.526 1340.48 560.958 z" fill="rgb(149,156,245)" transform="translate(0,0)"></path>
<path d="M 1196.36 720.535 L 1197.31 719.682 C 1198.34 720.802 1199.01 721.741 1200.28 722.521 C 1246.79 751.508 1293.72 779.821 1341.05 807.449 L 1341.08 917.585 C 1341.09 930.282 1341.89 960.684 1340.79 972.253 L 1341.48 977.397 L 1340.72 977.316 C 1265.31 975.861 1203.4 959.838 1136.93 925.307 L 1134.26 924.481 L 1132.31 920.868 L 1132.8 916.965 C 1140.55 840.04 1160.16 787.22 1196.36 720.535 z" fill="rgb(106,115,230)" transform="translate(0,0)"></path>
<path d="M 1196.36 720.535 L 1197.31 719.682 C 1198.34 720.802 1199.01 721.741 1200.28 722.521 C 1172.94 772.429 1153.42 820.384 1142.89 876.515 C 1140.62 888.625 1137.11 908.034 1136.74 920.403 L 1137.5 920.701 C 1150.92 926.061 1165.44 934.629 1179.2 940.302 C 1230.56 961.076 1285.39 971.918 1340.79 972.253 L 1341.48 977.397 L 1340.72 977.316 C 1265.31 975.861 1203.4 959.838 1136.93 925.307 L 1134.26 924.481 L 1132.31 920.868 L 1132.8 916.965 C 1140.55 840.04 1160.16 787.22 1196.36 720.535 z" fill="rgb(149,156,245)" transform="translate(0,0)"></path>
<path d="M 1489 722.013 C 1491.75 723.778 1498.57 738.592 1500.62 742.458 C 1529.68 797.219 1545.54 857.751 1552.25 919.004 C 1507 945.499 1456.78 962.389 1404.72 968.623 C 1392.32 971.574 1358.67 972.194 1344.86 972.383 C 1345.21 940.44 1345.32 908.495 1345.16 876.551 C 1345.2 853.628 1345.75 830.485 1345.05 807.612 C 1360.56 799.222 1378.65 787.822 1394.04 778.696 C 1425.83 760.036 1457.48 741.141 1489 722.013 z" fill="rgb(149,156,245)" transform="translate(0,0)"></path>
<path d="M 899.296 530.6 C 913.038 522.457 938.801 512.723 954.004 507.577 C 1037.48 479.065 1127.55 475.976 1212.78 498.702 C 1251.4 508.605 1289.75 524.798 1324.15 545.157 C 1328 547.437 1342.38 557.378 1345.64 558.18 L 1345.52 558.959 C 1343.57 559.508 1342.09 559.744 1340.48 560.958 C 1279.26 606.526 1238.84 650.974 1199.01 716.322 L 1198.91 716.975 L 1197.31 719.682 L 1196.36 720.535 C 1160.16 787.22 1140.55 840.04 1132.8 916.965 L 1132.31 920.868 L 1131.27 922.011 C 1120.2 919.475 1063.3 876.362 1053.29 867.698 C 954.641 782.28 904.114 667.724 894.817 538.84 C 894.505 533.052 894.896 533.733 899.296 530.6 z" fill="rgb(106,115,230)" transform="translate(0,0)"></path>
<path d="M 1089.09 488.003 C 1183.53 487.081 1261.08 511.571 1340.48 560.958 C 1279.26 606.526 1238.84 650.974 1199.01 716.322 C 1194.94 714.948 1170.53 699.746 1165.75 696.839 L 1089.36 650.581 L 1089.09 488.003 z" fill="rgb(17,33,172)" transform="translate(0,0)"></path>
<path d="M 949.644 727.69 C 995.278 702.878 1041.13 678.472 1087.2 654.475 C 1122.43 674.373 1160.59 699.637 1196.36 720.535 C 1160.16 787.22 1140.55 840.04 1132.8 916.965 C 1126.51 915.073 1107.57 902.104 1100.92 897.704 C 1035.31 854.239 985.881 797.341 949.644 727.69 z" fill="rgb(17,33,172)" transform="translate(0,0)"></path>
<path d="M 1080.58 488.457 C 1083.61 488.064 1082.26 487.788 1084.8 488.983 C 1086 500.13 1085.09 528.908 1085.09 541.451 L 1085.05 650.684 C 1069.95 657.924 1052.76 667.625 1037.73 675.581 L 947.64 723.423 C 943.183 714.555 938.999 704.361 935.024 695.169 C 912.556 640.734 903.906 593.389 898.933 535.506 C 959.338 506.154 1013.59 492.811 1080.58 488.457 z" fill="rgb(17,33,172)" transform="translate(0,0)"></path>
<path d="M 1131.27 922.011 L 1132.31 920.868 L 1134.26 924.481 L 1136.93 925.307 C 1203.4 959.838 1265.31 975.861 1340.72 977.316 L 1341.48 977.397 C 1344.88 977.291 1349.91 976.826 1353.02 977.011 C 1349.21 977.653 1347.77 977.168 1345.63 979.561 C 1344.62 1007.46 1346 1037.44 1345.64 1065.55 C 1345.54 1073.7 1345.06 1108.66 1346.21 1113.12 C 1344.63 1114.76 1345.3 1114.54 1343.38 1115.22 C 1302.21 1144.32 1261.24 1173.71 1220.48 1203.4 C 1248.09 1242.16 1274.43 1270.45 1311.77 1300.21 L 1307.43 1302.91 C 1302.2 1298.99 1296.49 1294.1 1291.62 1289.78 C 1197.09 1205.99 1132.58 1083.17 1131.09 955.521 C 1130.97 944.722 1132.22 932.589 1131.27 922.011 z" fill="rgb(54,67,211)" transform="translate(0,0)"></path>
<path d="M 1131.27 922.011 L 1132.31 920.868 L 1134.26 924.481 L 1136.93 925.307 C 1134.7 932.595 1135.75 950.797 1135.87 959.231 C 1137.15 1048.01 1168.88 1126.44 1217.38 1199.49 C 1233.14 1189.66 1252.03 1175.03 1267.4 1163.97 L 1341.6 1111.37 L 1341.38 1016.71 C 1341.36 1009.69 1341.64 981.583 1340.72 977.316 L 1341.48 977.397 C 1344.88 977.291 1349.91 976.826 1353.02 977.011 C 1349.21 977.653 1347.77 977.168 1345.63 979.561 C 1344.62 1007.46 1346 1037.44 1345.64 1065.55 C 1345.54 1073.7 1345.06 1108.66 1346.21 1113.12 C 1344.63 1114.76 1345.3 1114.54 1343.38 1115.22 C 1302.21 1144.32 1261.24 1173.71 1220.48 1203.4 C 1248.09 1242.16 1274.43 1270.45 1311.77 1300.21 L 1307.43 1302.91 C 1302.2 1298.99 1296.49 1294.1 1291.62 1289.78 C 1197.09 1205.99 1132.58 1083.17 1131.09 955.521 C 1130.97 944.722 1132.22 932.589 1131.27 922.011 z" fill="url(#Gradient1)" transform="translate(0,0)"></path>
<path d="M 894.261 532.772 C 894.186 530.579 894.122 528.386 894.07 526.193 C 891.201 406.063 935.618 284.87 1019.02 197.795 C 1101.19 112.259 1213.66 62.4057 1332.22 58.9673 C 1451.74 55.9013 1567.56 100.578 1654.06 183.115 C 1732.85 258.864 1781.85 360.356 1792.17 469.16 C 1794.51 492.16 1793.83 510.028 1794.25 532.742 L 1788.98 529.756 C 1790.39 403.209 1750.23 288.522 1660.86 197.125 C 1578.26 113.16 1465.79 65.2875 1348.01 63.9603 C 1230.44 63.3553 1117.35 109.078 1033.24 191.231 C 948.775 275.371 900.597 389.226 899.011 508.436 C 898.898 515.825 898.993 523.216 899.296 530.6 C 894.896 533.733 894.505 533.052 894.817 538.84 C 883.648 543.282 860.691 557.933 850.496 564.693 C 775.8 614.131 717.197 684.34 681.907 766.671 C 634.252 877.993 633.135 1003.76 678.805 1115.91 C 724.067 1227.04 811.358 1315.82 921.708 1362.95 C 1030.19 1409.23 1152.68 1410.18 1261.87 1365.57 C 1288.62 1354.84 1314.24 1341.5 1338.37 1325.73 C 1342.44 1329.62 1343.53 1327.55 1347.35 1325.02 C 1350.57 1327.74 1364.16 1335.75 1368.12 1338.06 C 1469.39 1396.93 1589.76 1413.61 1703.23 1384.49 C 1818.82 1353.84 1917.68 1278.88 1978.4 1175.85 C 2040.51 1070.63 2057.57 944.806 2025.72 826.842 C 1999.01 725.367 1937.78 636.367 1852.57 575.143 C 1832.94 560.827 1814.85 550.402 1793.96 538.227 L 1794.25 532.742 C 1805.65 539.183 1817.03 545.349 1828.14 552.306 C 1932.22 616.599 2006.37 719.743 2034.15 838.884 C 2062.6 959.448 2041.48 1086.39 1975.53 1191.24 C 1911.05 1292.94 1809.23 1365.26 1691.97 1392.66 C 1594.07 1414.59 1491.67 1403.59 1400.66 1361.37 C 1380.09 1351.7 1362.4 1340.88 1343.31 1328.84 L 1335.05 1334.1 C 1233.29 1398.19 1110.17 1419.03 992.982 1392 C 874.071 1364.91 772.813 1288.46 708.239 1185.78 C 704.395 1179.39 700.646 1172.94 696.992 1166.43 C 639.095 1061.08 624.763 937.233 657.068 821.437 C 684.094 724.302 742.288 638.739 822.697 577.911 C 847.497 559.246 867.565 547.646 894.261 532.772 z" fill="rgb(54,67,211)" transform="translate(0,0)"></path>
<path d="M 1311.77 1300.21 C 1315.31 1303.13 1339.93 1322.2 1343.07 1321.8 C 1344.74 1323.08 1345.13 1323.39 1347 1324.32 L 1347.35 1325.02 C 1343.53 1327.55 1342.44 1329.62 1338.37 1325.73 C 1327.84 1317.9 1317.72 1311.63 1307.43 1302.91 L 1311.77 1300.21 z" fill="rgb(106,115,230)" transform="translate(0,0)"></path>
<metadata></metadata></svg>